<svg width="30" height="29" viewBox="0 0 30 29" fill="none" xmlns="http://www.w3.org/2000/svg">
<path d="M15.9375 21.2746C15.9375 20.7568 15.5178 20.3371 15 20.3371C14.4822 20.3371 14.0625 20.7568 14.0625 21.2746V23.7746C14.0625 24.2923 14.4822 24.7121 15 24.7121C15.5178 24.7121 15.9375 24.2923 15.9375 23.7746V21.2746Z" fill="#999EA1"/>
<path fill-rule="evenodd" clip-rule="evenodd" d="M15.2635 0.567331C15.0879 0.56089 14.9121 0.56089 14.7365 0.567331C13.5773 0.609857 12.5335 1.00404 11.3889 1.66022C10.2736 2.29967 8.98956 3.2326 7.36033 4.41631L7.27177 4.48066C5.64252 5.66436 4.35845 6.59728 3.40563 7.46043C2.4279 8.34616 1.73044 9.2171 1.33178 10.3064C1.27139 10.4715 1.21707 10.6386 1.16893 10.8076C0.851153 11.9233 0.903482 13.0378 1.17387 14.3291C1.43737 15.5874 1.92784 17.0969 2.55017 19.0122L2.584 19.1163C3.20629 21.0316 3.69676 22.5411 4.22322 23.714C4.76346 24.9176 5.37625 25.8501 6.28908 26.5659C6.42736 26.6743 6.56958 26.7776 6.71543 26.8756C7.63381 27.4927 8.65541 27.7894 9.88727 27.9386C11.1977 28.0974 12.8361 28.0973 14.9373 28.0973H15.0627C17.1639 28.0973 18.8023 28.0974 20.1128 27.9386C21.3446 27.7894 22.3662 27.4927 23.2846 26.8756C23.4304 26.7776 23.5727 26.6743 23.7109 26.5659C24.6238 25.8501 25.2366 24.9176 25.7768 23.714C26.3033 22.5411 26.7937 21.0316 27.416 19.1163L27.4499 19.0122C28.0722 17.097 28.5627 15.5874 28.8261 14.3291C29.0965 13.0378 29.1489 11.9233 28.8311 10.8076C28.7829 10.6386 28.7286 10.4715 28.6682 10.3064C28.2696 9.2171 27.5721 8.34616 26.5944 7.46043C25.6416 6.59728 24.3575 5.66436 22.7282 4.48065L22.6397 4.41629C21.0104 3.23259 19.7264 2.29967 18.6111 1.66022C17.4666 1.00404 16.4227 0.609857 15.2635 0.567331ZM14.8053 2.44107C14.935 2.43631 15.065 2.43631 15.1948 2.44107C15.9391 2.46838 16.6804 2.71459 17.6785 3.28684C18.6957 3.87004 19.8986 4.74245 21.5819 5.9654C23.2651 7.18835 24.4666 8.06282 25.3356 8.85003C26.1882 9.62247 26.6515 10.2514 26.9074 10.9508C26.9521 11.0728 26.9922 11.1964 27.0278 11.3213C27.2318 12.0376 27.2268 12.8187 26.9909 13.9448C26.7506 15.0924 26.2926 16.5061 25.6497 18.4849C25.0068 20.4636 24.5464 21.8765 24.0662 22.9462C23.5951 23.9959 23.1401 24.6308 22.554 25.0904C22.4518 25.1705 22.3466 25.2469 22.2388 25.3193C21.8694 25.5676 21.455 25.7519 20.9375 25.8864V21.2746C20.9375 17.9954 18.2792 15.3371 15 15.3371C11.7208 15.3371 9.06251 17.9954 9.06251 21.2746V25.8864C8.54506 25.7519 8.1306 25.5676 7.76117 25.3193C7.65337 25.2469 7.54825 25.1705 7.44605 25.0904C6.85995 24.6308 6.40495 23.9959 5.93381 22.9462C5.45366 21.8765 4.99325 20.4636 4.35031 18.4849C3.70737 16.5061 3.24938 15.0924 3.00907 13.9448C2.77326 12.8187 2.76817 12.0376 2.9722 11.3213C3.00778 11.1964 3.04793 11.0728 3.09257 10.9508C3.34854 10.2514 3.81178 9.62247 4.66446 8.85003C5.53345 8.06282 6.73489 7.18835 8.41813 5.9654C10.1014 4.74245 11.3043 3.87004 12.3215 3.28684C13.3197 2.71459 14.061 2.46838 14.8053 2.44107ZM15 17.2121C17.2437 17.2121 19.0625 19.0309 19.0625 21.2746V26.1522C18.0083 26.2213 16.7041 26.2223 15 26.2223C13.2959 26.2223 11.9918 26.2213 10.9375 26.1522V21.2746C10.9375 19.0309 12.7564 17.2121 15 17.2121Z" fill="#999EA1"/>
</svg>
