<svg width="26" height="26" viewBox="0 0 26 26" fill="none" xmlns="http://www.w3.org/2000/svg">
<path d="M21.7431 3.80304C20.9766 3.56141 20.1152 3.4441 19.12 3.38269C17.9825 3.3125 16.6001 3.3125 14.9041 3.3125H11.0759C9.07171 3.31249 7.50051 3.31249 6.24528 3.43183C4.96584 3.55348 3.91821 3.80571 2.99469 4.37165C2.02757 4.9643 1.21444 5.77742 0.621793 6.74454C0.600797 6.7788 0.580232 6.81324 0.56009 6.84785C0.656708 5.04392 0.909066 3.84916 1.56821 2.90333C1.91314 2.40837 2.33066 1.9731 2.80543 1.61349C4.27548 0.5 6.37248 0.5 10.5665 0.5H17.2774C19.3864 0.5 20.4409 0.5 21.0961 1.18306C21.5993 1.70767 21.7161 2.47785 21.7431 3.80304Z" fill="#199EFF"/>
<path d="M1.42103 7.23438C0.500027 8.73732 0.500027 10.7832 0.500027 14.875C0.500027 18.9668 0.500027 21.0127 1.42103 22.5156C1.93637 23.3566 2.64344 24.0637 3.48441 24.579C4.98734 25.5 7.03324 25.5 11.125 25.5H14.875C18.9668 25.5 21.0127 25.5 22.5156 24.579C23.3566 24.0637 24.0637 23.3566 24.579 22.5156C25.1839 21.5286 25.3915 20.3073 25.4628 18.4262H17.5456C15.145 18.4262 13.199 16.4801 13.199 14.0796C13.199 11.679 15.145 9.73298 17.5456 9.73298H25.3471C25.2218 8.69841 24.9939 7.91132 24.579 7.23438C24.0637 6.39341 23.3566 5.68635 22.5156 5.171C22.2762 5.02429 22.0231 4.90095 21.75 4.79726C20.309 4.25 18.315 4.25 14.875 4.25H11.125C7.03324 4.25 4.98734 4.25 3.48441 5.171C2.64344 5.68635 1.93637 6.39341 1.42103 7.23438Z" fill="#199EFF"/>
<path fill-rule="evenodd" clip-rule="evenodd" d="M25.4724 11.608H17.5456C16.1806 11.608 15.074 12.7145 15.074 14.0796C15.074 15.4446 16.1806 16.5512 17.5456 16.5512H25.4971C25.5 16.0334 25.5 15.4763 25.5 14.875C25.5 13.6035 25.5 12.5295 25.4724 11.608ZM17.5456 13.1421C17.0278 13.1421 16.6081 13.5618 16.6081 14.0796C16.6081 14.5973 17.0278 15.0171 17.5456 15.0171H20.9547C21.4725 15.0171 21.8922 14.5973 21.8922 14.0796C21.8922 13.5618 21.4725 13.1421 20.9547 13.1421H17.5456Z" fill="#199EFF"/>
</svg>
